<svg width="180" height="40" viewBox="0 0 180 40" fill="none" xmlns="http://www.w3.org/2000/svg">
  <!-- Circular badge background -->
  <circle cx="20" cy="20" r="18" fill="#1e4d3c" stroke="#1e4d3c" stroke-width="2"/>
  
  <!-- Inner light background -->
  <circle cx="20" cy="20" r="15" fill="#f5f5dc"/>
  
  <!-- Back mountains -->
  <path d="M7 24 L12 12 L17 16 L22 10 L27 14 L33 22 L7 22 Z" fill="#7a9b8a"/>
  
  <!-- Front mountains -->
  <path d="M5 26 L10 16 L15 20 L20 14 L25 18 L30 12 L35 20 L35 28 L5 28 Z" fill="#4a6b5a"/>
  
  <!-- Central hexagonal rock/gem -->
  <g transform="translate(20,23)">
    <path d="M-3,-6 L3,-6 L6,-2 L3,4 L-3,4 L-6,-2 Z" fill="#2d5d4a" stroke="#1e4d3c" stroke-width="1"/>
    <path d="M-2,-5 L2,-5 L4,-2 L2,3 L-2,3 L-4,-2 Z" fill="#5a8070"/>
  </g>
  
  <!-- Four-pointed star -->
  <g transform="translate(20,11)">
    <path d="M0,-4 L1,0 L0,4 L-1,0 Z" fill="#1e4d3c"/>
    <path d="M-4,0 L0,1 L4,0 L0,-1 Z" fill="#1e4d3c"/>
  </g>
  
  <!-- Text -->
  <text x="48" y="16" font-family="-apple-system, BlinkMacSystemFont, 'Segoe UI', Roboto, sans-serif" font-size="16" font-weight="700" fill="#1e4d3c" letter-spacing="1px">ROCK</text>
  <text x="48" y="30" font-family="-apple-system, BlinkMacSystemFont, 'Segoe UI', Roboto, sans-serif" font-size="16" font-weight="700" fill="#1e4d3c" letter-spacing="1px">SPOTTER</text>
</svg>