<svg width="32" height="32" viewBox="0 0 32 32" fill="none" xmlns="http://www.w3.org/2000/svg">
  <!-- Circular badge background -->
  <circle cx="16" cy="16" r="15" fill="#1e4d3c"/>
  
  <!-- Inner light background -->
  <circle cx="16" cy="16" r="12" fill="#f5f5dc"/>
  
  <!-- Back mountains -->
  <path d="M6 20 L9 10 L12 13 L15 9 L18 12 L21 18 L6 18 Z" fill="#7a9b8a"/>
  
  <!-- Front mountains -->
  <path d="M4 22 L7 14 L10 17 L13 12 L16 15 L19 11 L22 17 L26 20 L26 24 L4 24 Z" fill="#4a6b5a"/>
  
  <!-- Central hexagonal rock -->
  <g transform="translate(16,20)">
    <path d="M-2,-4 L2,-4 L4,-1 L2,2 L-2,2 L-4,-1 Z" fill="#2d5d4a"/>
    <path d="M-1.5,-3 L1.5,-3 L3,-1 L1.5,1.5 L-1.5,1.5 L-3,-1 Z" fill="#5a8070"/>
  </g>
  
  <!-- Four-pointed star -->
  <g transform="translate(16,9)">
    <path d="M0,-2.5 L0.7,0 L0,2.5 L-0.7,0 Z" fill="#1e4d3c"/>
    <path d="M-2.5,0 L0,0.7 L2.5,0 L0,-0.7 Z" fill="#1e4d3c"/>
  </g>
</svg>
